<svg xmlns="http://www.w3.org/2000/svg" xmlns:xlink="http://www.w3.org/1999/xlink" preserveAspectRatio="xMidYMid" width="14" height="14" viewBox="0 0 27 27">
  <path d="M13.500,27.000 C6.044,27.000 -0.000,20.956 -0.000,13.500 C-0.000,6.044 6.044,0.000 13.500,0.000 C20.956,0.000 27.000,6.044 27.000,13.500 C27.000,20.956 20.956,27.000 13.500,27.000 ZM13.500,2.000 C7.149,2.000 2.000,7.149 2.000,13.500 C2.000,19.851 7.149,25.000 13.500,25.000 C19.851,25.000 25.000,19.851 25.000,13.500 C25.000,7.149 19.851,2.000 13.500,2.000 ZM18.293,19.707 C18.293,19.707 13.500,14.914 13.500,14.914 C13.500,14.914 8.707,19.707 8.707,19.707 C8.707,19.707 7.293,18.293 7.293,18.293 C7.293,18.293 12.086,13.500 12.086,13.500 C12.086,13.500 7.293,8.707 7.293,8.707 C7.293,8.707 8.707,7.293 8.707,7.293 C8.707,7.293 13.500,12.086 13.500,12.086 C13.500,12.086 18.293,7.293 18.293,7.293 C18.293,7.293 19.707,8.707 19.707,8.707 C19.707,8.707 14.914,13.500 14.914,13.500 C14.914,13.500 19.707,18.293 19.707,18.293 C19.707,18.293 18.293,19.707 18.293,19.707 Z" id="path-1" fill-rule="evenodd"/>
</svg>
