<svg xmlns="http://www.w3.org/2000/svg" width="20" height="20" fill="currentColor"><g clip-path="url(#a)"><path d="M8.96 4.75h2.077v4.859l-.403 2.407H9.362L8.96 9.609V4.75Zm-.218 9.363c0-.345.114-.615.341-.812.228-.207.528-.31.9-.31.393 0 .703.103.93.31.227.197.341.467.341.812 0 .344-.114.62-.34.827-.228.207-.538.31-.931.31-.372 0-.672-.103-.9-.31-.227-.207-.34-.483-.34-.827Z"/><path fill-rule="evenodd" d="M10 1.625a8.375 8.375 0 1 0 0 16.75 8.375 8.375 0 0 0 0-16.75ZM.375 10a9.625 9.625 0 1 1 19.25 0 9.625 9.625 0 0 1-19.25 0Z" clip-rule="evenodd"/></g><defs><clipPath id="a"><path d="M0 0h20v20H0z"/></clipPath></defs></svg>
