<svg xmlns="http://www.w3.org/2000/svg" width="20" height="20" fill="none" viewBox="0 0 20 20"><g fill="currentColor" clip-path="url(#a)"><path d="M9.99 12.785c.35 0 .622.098.817.274q.292.292.293.76-.001.465-.293.76-.293.291-.818.291c-.33 0-.584-.097-.799-.292q-.29-.292-.292-.76 0-.467.292-.76c.195-.194.468-.273.8-.273M10.924 9.63l-.35 2.22h-1.13l-.351-2.22v-4.5h1.83z"/><path fill-rule="evenodd" d="M9.999 0c5.523 0 10 4.477 10 10s-4.477 10-10 10-10-4.477-10-10 4.477-10 10-10m0 1.299a8.701 8.701 0 1 0 0 17.402 8.701 8.701 0 0 0 0-17.402" clip-rule="evenodd"/></g><defs><clipPath id="a"><path fill="currentColor" d="M0 0h20v20H0z"/></clipPath></defs></svg>
