<svg xmlns="http://www.w3.org/2000/svg" width="20" height="20" fill="currentColor"><g clip-path="url(#a)"><path d="M10.972 15.195H9.023V8.7h1.949v6.494ZM10.687 6.475a.956.956 0 0 1-.695.278.927.927 0 0 1-.69-.284.956.956 0 0 1-.279-.695c0-.275.095-.505.285-.69a.956.956 0 0 1 .695-.279c.274 0 .505.095.69.284.186.19.279.422.279.696a.927.927 0 0 1-.285.69Z"/><path fill-rule="evenodd" d="M10 1.299A8.701 8.701 0 1 0 10 18.7 8.701 8.701 0 0 0 10 1.3ZM0 10C0 4.477 4.477 0 10 0s10 4.477 10 10-4.477 10-10 10S0 15.523 0 10Z" clip-rule="evenodd"/></g><defs><clipPath id="a"><path d="M0 0h20v20H0z"/></clipPath></defs></svg>
