<svg xmlns="http://www.w3.org/2000/svg" width="20" height="20" fill="none" viewBox="0 0 20 20"><g fill="currentColor" clip-path="url(#a)"><path d="M10.972 15.194H9.023V8.701h1.949zM10.003 4.806q.412 0 .69.283.279.285.279.696a.93.93 0 0 1-.284.69.96.96 0 0 1-.696.278.93.93 0 0 1-.69-.284.96.96 0 0 1-.279-.696q0-.41.285-.689a.96.96 0 0 1 .695-.278"/><path fill-rule="evenodd" d="M10 0c5.523 0 10 4.477 10 10s-4.477 10-10 10S0 15.523 0 10 4.477 0 10 0m0 1.299A8.701 8.701 0 1 0 10 18.7a8.701 8.701 0 0 0 0-17.402" clip-rule="evenodd"/></g><defs><clipPath id="a"><path fill="currentColor" d="M0 0h20v20H0z"/></clipPath></defs></svg>
