<svg xmlns="http://www.w3.org/2000/svg" width="15" height="15" viewBox="0 0 15 15">
  <defs>
    <style>
      .cls-1 {
        fill-rule: evenodd;
      }
    </style>
  </defs>
  <path fill="currentColor" id="Settings" class="cls-1" d="M2250,271v-1h2v1h-2Zm-5.5,5a5.5,5.5,0,1,1,5.5-5.5A5.5,5.5,0,0,1,2244.5,276Zm0-10a4.5,4.5,0,1,0,4.5,4.5A4.5,4.5,0,0,0,2244.5,266Zm0,7a2.5,2.5,0,1,1,2.5-2.5A2.5,2.5,0,0,1,2244.5,273Zm0-4a1.5,1.5,0,1,0,1.5,1.5A1.5,1.5,0,0,0,2244.5,269Zm0.5,9h-1v-2h1v2Zm-8-7v-1h2v1h-2Zm7-8h1v2h-1v-2Zm5.01,4.317,1.74-1,0.5,0.866-1.74,1Zm-2.19-1.83,1-1.732,0.86,0.5-1,1.732Zm-6.5-1.232,0.86-.5,1,1.732-0.86.5Zm-2.57,2.928,0.5-.866,1.74,1-0.5.866Zm2.24,6.5-1.74,1-0.5-.866,1.74-1Zm2.19,1.83-1,1.732-0.86-.5,1-1.732Zm6.5,1.232-0.86.5-1-1.732,0.86-.5Zm2.57-2.928-0.5.866-1.74-1,0.5-.866Z" transform="translate(-2237 -263)"/>
</svg>
