<svg xmlns="http://www.w3.org/2000/svg" width="13.5" height="12.5" viewBox="0 0 27 25">
<defs>
    <style>
      .cls-1 {
        fill-rule: evenodd;
        fill: currentColor;
      }
    </style>
  </defs>
  <path class="cls-1" d="M1467.8,1137.76a1.785,1.785,0,1,1-1.8,1.79A1.8,1.8,0,0,1,1467.8,1137.76Zm0,4.47a2.68,2.68,0,1,1,2.7-2.68A2.7,2.7,0,0,1,1467.8,1142.23Zm0-3.58a0.9,0.9,0,1,0,.9.9A0.9,0.9,0,0,0,1467.8,1138.65Zm6.6,11.02a1.785,1.785,0,1,1-1.8,1.78A1.795,1.795,0,0,1,1474.4,1149.67Zm0,4.46a2.68,2.68,0,1,1,2.7-2.68A2.691,2.691,0,0,1,1474.4,1154.13Zm0-3.57a0.9,0.9,0,1,0,.9.89A0.894,0.894,0,0,0,1474.4,1150.56Zm-13.8,7.44a6.542,6.542,0,0,1-1.6-12.9l0.58,2.31a4.172,4.172,0,1,0,5.22,4.04v-1.19h7.8v2.38h-5.51A6.588,6.588,0,0,1,1460.6,1158Zm13.8,0a6.6,6.6,0,0,1-4.58-1.83l1.67-1.72a4.18,4.18,0,1,0,2.91-7.16,4.218,4.218,0,0,0-2.03.51l-1.05.58-3.72-6.73,2.1-1.15,2.62,4.74a6.665,6.665,0,0,1,2.08-.34A6.55,6.55,0,1,1,1474.4,1158Zm-14.7-8.09a1.8,1.8,0,0,1,2.46.65,1.778,1.778,0,0,1-.66,2.44,1.81,1.81,0,0,1-2.46-.66A1.766,1.766,0,0,1,1459.7,1149.91Zm0.91,4.22a2.82,2.82,0,0,1-.71-0.09,2.717,2.717,0,0,1-1.64-1.25,2.669,2.669,0,0,1-.27-2.03,2.712,2.712,0,0,1,1.26-1.63h0a2.719,2.719,0,0,1,2.05-.27,2.689,2.689,0,0,1,1.64,1.25,2.668,2.668,0,0,1-.99,3.66A2.7,2.7,0,0,1,1460.61,1154.13Zm-0.01-3.57a0.892,0.892,0,0,0-.45.12h0a0.874,0.874,0,0,0-.42.54,0.9,0.9,0,0,0,.09.68,0.915,0.915,0,0,0,.55.41,0.9,0.9,0,0,0,.68-0.09,0.848,0.848,0,0,0,.42-0.54,0.894,0.894,0,0,0-.64-1.09A0.852,0.852,0,0,0,1460.6,1150.56Zm1.94,0.02-2.05-1.24,2.97-4.86a6.582,6.582,0,1,1,10.65-3l-2.3-.7a3.95,3.95,0,0,0,.19-1.23,4.2,4.2,0,1,0-6.33,3.59l1.04,0.61Z" transform="translate(-1454 -1133)"/>
</svg>
