<svg xmlns="http://www.w3.org/2000/svg" width="20" height="20" fill="none"><g clip-path="url(#a)"><path fill="currentColor" fill-rule="evenodd" d="M9 15.207c0-.312.097-.565.292-.76.195-.194.468-.272.799-.272.35 0 .623.097.818.272.195.195.292.448.292.76s-.097.565-.292.76c-.195.195-.467.292-.818.292-.331 0-.585-.097-.799-.292-.195-.195-.292-.448-.292-.76Zm.195-8.688h1.831v4.5l-.35 2.22h-1.13l-.351-2.22v-4.5Z" clip-rule="evenodd"/><path fill="none" stroke="currentColor" stroke-width="1.3" d="M8.666 2.47a1.542 1.542 0 0 1 2.671 0l7.804 13.518a1.542 1.542 0 0 1-1.335 2.313H2.197a1.542 1.542 0 0 1-1.335-2.313L8.666 2.47Z"/></g><defs><clipPath id="a"><path fill="currentColor" d="M0 0h20v20H0z"/></clipPath></defs></svg>
