<svg xmlns="http://www.w3.org/2000/svg" width="20" height="20" fill="none" viewBox="0 0 20 20"><g fill="currentColor" clip-path="url(#a)"><path d="M10.09 14.175c.35 0 .623.097.817.272q.293.293.293.76 0 .468-.293.76-.292.292-.817.292c-.331 0-.585-.097-.799-.292Q9 15.675 9 15.207q0-.467.292-.76c.195-.194.468-.272.8-.272M11.025 11.019l-.351 2.22h-1.13l-.35-2.22v-4.5h1.83z"/><path fill-rule="evenodd" d="M8.103 2.145c.844-1.46 2.953-1.461 3.797 0l7.803 13.517c.844 1.462-.21 3.288-1.898 3.288H2.197a2.185 2.185 0 0 1-1.899-3.288zm2.67.65a.892.892 0 0 0-1.544 0L1.424 16.313a.892.892 0 0 0 .773 1.338h15.608a.892.892 0 0 0 .772-1.338z" clip-rule="evenodd"/></g><defs><clipPath id="a"><path fill="currentColor" d="M0 0h20v20H0z"/></clipPath></defs></svg>
