<svg width="80" height="17" viewBox="0 0 80 17" fill="none" xmlns="http://www.w3.org/2000/svg">
    <path
        d="M15.5009 16.9999H12.3102C11.7194 16.9999 11.1375 16.8567 10.6142 16.5826C10.0909 16.3085 9.64181 15.9117 9.30534 15.4262L7.30213 12.5323L5.73559 10.2697C5.66433 10.1662 5.5618 10.0883 5.44304 10.0474C5.32427 10.0064 5.19552 10.0046 5.07563 10.0421C4.95575 10.0797 4.85103 10.1546 4.77684 10.256C4.70266 10.3574 4.66289 10.4799 4.66337 10.6055V16.0588C4.66337 16.3084 4.56422 16.5478 4.38773 16.7243C4.21124 16.9008 3.97188 16.9999 3.72229 16.9999H0.956707C0.707234 16.9995 0.468087 16.9003 0.291683 16.7239C0.115279 16.5475 0.0160062 16.3083 0.015625 16.0588V11.9991C0.015625 11.5191 0.110159 11.0439 0.293829 10.6005C0.477499 10.1571 0.746711 9.75415 1.08609 9.41477C1.42547 9.0754 1.82836 8.80619 2.27178 8.62252C2.7152 8.43885 3.19045 8.34432 3.6704 8.34432H4.39098C4.43745 8.34424 4.48322 8.33293 4.52437 8.31135C4.56552 8.28977 4.60085 8.25856 4.62734 8.22038L7.29637 4.37104L9.23184 1.57519C9.56771 1.08893 10.0166 0.691532 10.5401 0.417149C11.0635 0.142766 11.6457 -0.000386716 12.2367 7.84602e-07H15.4245C15.477 5.55435e-06 15.5285 0.0143325 15.5734 0.0414394C15.6183 0.0685463 15.655 0.107406 15.6795 0.153823C15.7039 0.20024 15.7153 0.252455 15.7122 0.30484C15.7092 0.357224 15.6919 0.407791 15.6623 0.451085L10.9915 7.19715C10.736 7.56534 10.5991 8.0028 10.5991 8.45096C10.5991 8.89912 10.736 9.33658 10.9915 9.70477L15.7444 16.5474C15.7748 16.5911 15.7924 16.6424 15.7954 16.6955C15.7985 16.7486 15.7867 16.8015 15.7615 16.8484C15.7363 16.8952 15.6986 16.9342 15.6526 16.9609C15.6066 16.9877 15.5541 17.0012 15.5009 16.9999Z"
        fill="#c9cdcf" />
    <path
        d="M46.441 16.6814H42.4836V9.44393C42.4836 9.10872 42.3505 8.78725 42.1134 8.55022C41.8764 8.31319 41.5549 8.18003 41.2197 8.18003C40.8845 8.18003 40.563 8.31319 40.326 8.55022C40.089 8.78725 39.9558 9.10872 39.9558 9.44393V16.6757H36.0056V16.4321C36.0056 15.2129 36.0056 12.0654 36.0056 10.1054C36.0048 9.8869 35.961 9.67067 35.8767 9.46909C35.7923 9.2675 35.669 9.08452 35.5139 8.93061C35.3588 8.77669 35.1749 8.65485 34.9726 8.57206C34.7704 8.48927 34.5538 8.44714 34.3353 8.44809H33.4706V16.6814H29.5276V4.62181H29.7366C31.2325 4.62181 32.7284 4.63622 34.2243 4.62181C35.6655 4.60451 36.9496 4.97057 37.9713 6.04711C38.1371 5.89147 38.2942 5.73006 38.4657 5.58595C39.1387 5.01813 39.8809 4.57713 40.7614 4.41284C43.0514 3.97184 45.6124 5.47065 46.2566 7.65401C46.3763 8.06223 46.4379 8.48529 46.4396 8.9107C46.441 11.4529 46.441 16.6281 46.441 16.6814Z"
        fill="#c9cdcf" />
    <path
        d="M65.7268 16.6814H61.7694V9.44393C61.7751 9.27446 61.7467 9.10556 61.6858 8.94731C61.6249 8.78905 61.5327 8.64467 61.4149 8.52276C61.297 8.40085 61.1558 8.3039 60.9997 8.23769C60.8436 8.17148 60.6758 8.13736 60.5062 8.13736C60.3366 8.13736 60.1688 8.17148 60.0127 8.23769C59.8566 8.3039 59.7154 8.40085 59.5975 8.52276C59.4797 8.64467 59.3875 8.78905 59.3266 8.94731C59.2657 9.10556 59.2373 9.27446 59.243 9.44393V16.6757H55.287V16.4321C55.287 15.2129 55.287 12.0654 55.287 10.1054C55.287 9.66434 55.1118 9.24132 54.7999 8.92943C54.488 8.61754 54.065 8.44232 53.6239 8.44232H52.7592V16.6757H48.8062V4.62181H49.0151C50.511 4.62181 52.007 4.63622 53.5029 4.62181C54.944 4.60451 56.2281 4.97057 57.2499 6.04711C57.4156 5.89147 57.5727 5.73006 57.7442 5.58595C58.4173 5.01813 59.1594 4.57713 60.04 4.41284C62.33 3.97184 64.8909 5.47065 65.5351 7.65401C65.6544 8.0623 65.7155 8.48535 65.7167 8.9107L65.7268 16.6814Z"
        fill="#c9cdcf" />
    <path
        d="M15.2546 10.6747C15.2546 7.66846 17.4855 4.95475 20.4514 4.45178C22.789 4.05547 24.7158 4.88413 26.216 6.67838C26.7601 7.30691 27.1688 8.04077 27.4167 8.8342C27.6647 9.62764 27.7465 10.4636 27.6572 11.2901C27.4987 12.9272 26.7594 14.2877 25.5531 15.3873C24.4002 16.4437 23.0224 17.0173 21.4444 16.9956C19.359 16.9639 17.7233 16.0344 16.4911 14.3814C15.6793 13.3171 15.2443 12.0132 15.2546 10.6747ZM19.065 10.6747C19.0657 11.0965 19.1643 11.5124 19.3532 11.8896C19.5088 12.2366 19.7471 12.5402 20.0473 12.7736C20.3475 13.007 20.7004 13.1631 21.0751 13.2283C21.4497 13.2934 21.8346 13.2656 22.196 13.1473C22.5574 13.029 22.8842 12.8238 23.1478 12.5497C23.5522 12.1097 23.8019 11.5497 23.8591 10.9549C23.9164 10.36 23.7779 9.76276 23.4649 9.25373C23.1619 8.72778 22.663 8.34313 22.0773 8.18381C21.4916 8.02449 20.8667 8.10345 20.339 8.40345C19.4743 8.89777 19.1198 9.70626 19.0592 10.669L19.065 10.6747Z"
        fill="#c9cdcf" />
    <path
        d="M80.0001 10.4252C80.0073 13.7803 77.6135 16.5602 74.5453 16.9465C72.4181 17.2145 70.6441 16.4608 69.213 14.8928C68.307 13.924 67.7422 12.6857 67.6047 11.3663C67.4159 9.55909 67.9433 7.96517 69.1049 6.5831C70.04 5.42733 71.3714 4.66044 72.8404 4.43145C74.7355 4.13169 76.4073 4.66636 77.8239 5.93602C79.2406 7.20568 79.9669 8.77654 80.0001 10.4252ZM76.1868 10.676C76.1855 10.2688 76.0934 9.86709 75.9173 9.50001C75.116 7.78359 73.1445 7.79655 72.2308 8.69872C71.8696 9.03127 71.6078 9.4575 71.4745 9.92998C71.3412 10.4025 71.3416 10.9027 71.4756 11.375C71.8373 12.8031 73.205 13.5742 74.541 13.1303C75.4964 12.8147 76.1868 11.7842 76.1868 10.676Z"
        fill="#c9cdcf" />
</svg>