<svg width="16" height="16" viewBox="0 0 16 16" fill="none" xmlns="http://www.w3.org/2000/svg">
<path fill-rule="evenodd" clip-rule="evenodd" d="M7.84213 5.65002C7.91121 5.61242 7.96441 5.61234 8.03353 5.65002C8.10266 5.68864 8.23013 6.07253 8.4847 6.83752C8.7336 7.58533 9.07732 8.31025 9.53256 8.67443C9.89634 8.9653 10.414 9.19877 10.9535 9.38244C11.7406 9.65039 12.1354 9.78524 12.1742 9.85412C12.2119 9.92374 12.2119 9.97589 12.1742 10.0455L12.1439 10.0738C12.0329 10.1493 11.6441 10.2821 10.9535 10.5172L10.555 10.6637C10.1648 10.8205 9.80545 11.007 9.53256 11.2252L9.44857 11.2975C9.03469 11.6799 8.71811 12.3608 8.4847 13.0621C8.23004 13.8274 8.10265 14.2112 8.03353 14.2496L7.98373 14.2711C7.95263 14.2803 7.92301 14.2803 7.89193 14.2711L7.84213 14.2496C7.80761 14.2308 7.75817 14.1253 7.68588 13.9293L7.39095 13.0621C7.1421 12.3144 6.79825 11.5895 6.3431 11.2252C6.07026 11.007 5.71084 10.8205 5.32064 10.6637L4.9222 10.5172C4.2319 10.2822 3.84313 10.1493 3.73177 10.0738L3.7015 10.0455C3.66366 9.97578 3.66366 9.92387 3.7015 9.85412C3.72095 9.81976 3.82878 9.76931 4.02963 9.69396L4.9222 9.38244C5.39419 9.22173 5.84951 9.02294 6.19955 8.78088L6.3431 8.67443C6.7414 8.3557 7.05374 7.76051 7.29232 7.11584L7.39095 6.83752C7.64588 6.07148 7.77306 5.68773 7.84213 5.65002ZM7.93783 7.66174C7.85088 7.87389 7.75503 8.0832 7.64779 8.28088C7.44836 8.6484 7.18706 9.02316 6.8431 9.29846C6.50852 9.56613 6.0982 9.77911 5.6849 9.94982C6.09818 10.1205 6.50853 10.3335 6.8431 10.6012C7.18702 10.8765 7.44838 11.2513 7.64779 11.6188C7.75486 11.8161 7.85099 12.0251 7.93783 12.2369C8.0247 12.0251 8.12076 11.8162 8.22787 11.6188C8.42732 11.2512 8.68854 10.8765 9.03256 10.6012C9.36696 10.3337 9.77674 10.1205 10.1898 9.94982C9.77678 9.77919 9.36694 9.56591 9.03256 9.29846C8.68858 9.0232 8.42731 8.64839 8.22787 8.28088C8.12064 8.08324 8.02477 7.87385 7.93783 7.66174Z" fill="currentColor"/>
<path fill-rule="evenodd" clip-rule="evenodd" d="M11.5501 1.74768C11.6212 1.71345 11.653 1.71355 11.724 1.74768C11.787 1.77804 11.9523 2.12137 12.2826 2.80725C12.4259 3.10502 12.596 3.36174 12.7962 3.52209C12.9088 3.61211 13.0422 3.69479 13.1878 3.77014C13.8745 4.12525 14.219 4.30305 14.2484 4.36486C14.282 4.43674 14.282 4.46291 14.2484 4.53479L14.222 4.56311C14.1269 4.64346 13.7882 4.81901 13.1878 5.12951L12.9798 5.24768C12.9144 5.28895 12.8525 5.33256 12.7962 5.37756L12.723 5.44201C12.5542 5.60255 12.4081 5.83174 12.2826 6.0924L11.9027 6.86779C11.8123 7.04286 11.7555 7.1368 11.724 7.15197L11.6771 7.17053C11.6488 7.17917 11.6253 7.17925 11.597 7.17053L11.5501 7.15197C11.5186 7.13635 11.4616 7.04246 11.3714 6.86779L10.9915 6.0924C10.866 5.83165 10.72 5.60254 10.5511 5.44201L10.4779 5.37756C10.4216 5.33255 10.3597 5.28896 10.2943 5.24768L10.0863 5.12951C9.48545 4.8188 9.1468 4.64334 9.05209 4.56311L9.02572 4.53479C8.99219 4.46305 8.99223 4.43654 9.02572 4.36486C9.04022 4.33405 9.13403 4.27463 9.30892 4.17834L10.0863 3.77014C10.159 3.73253 10.2289 3.69318 10.2943 3.65197L10.4779 3.52209C10.6781 3.3618 10.8481 3.10503 10.9915 2.80725C11.3212 2.12261 11.4868 1.77917 11.5501 1.74768ZM11.637 3.29748C11.4784 3.59825 11.2671 3.91492 10.9769 4.14709C10.8298 4.2647 10.6685 4.36365 10.5081 4.44982C10.6686 4.53601 10.8298 4.63493 10.9769 4.75256C11.2669 4.98456 11.4784 5.30061 11.637 5.60119C11.7956 5.30068 12.0073 4.98457 12.2972 4.75256C12.444 4.63512 12.6049 4.53592 12.765 4.44982C12.6048 4.36372 12.4441 4.26454 12.2972 4.14709C12.007 3.91488 11.7957 3.59825 11.637 3.29748Z" fill="currentColor"/>
<path fill-rule="evenodd" clip-rule="evenodd" d="M3.65951 2.44006C3.73128 2.40942 3.74381 2.40933 3.81576 2.44006C3.87337 2.46497 4.06608 2.77118 4.44955 3.38146C4.54036 3.52593 4.64106 3.64893 4.75228 3.73791C4.77465 3.7558 4.79848 3.77343 4.8226 3.79064C5.41033 4.21015 5.70449 4.42046 5.72689 4.47521C5.7563 4.54877 5.75621 4.55033 5.72689 4.62365C5.70504 4.67813 5.41075 4.88841 4.8226 5.30822L4.75228 5.36096C4.64114 5.44987 4.54031 5.57309 4.44955 5.7174L4.0101 6.40783C3.90739 6.56295 3.84465 6.64603 3.81576 6.65881L3.77084 6.67639C3.74636 6.68394 3.72887 6.68391 3.70443 6.67639L3.65951 6.65881C3.60203 6.63424 3.40948 6.32815 3.02572 5.7174C2.95759 5.60904 2.88356 5.51304 2.80404 5.4342L2.72299 5.36096C2.70063 5.34307 2.67678 5.32543 2.65267 5.30822C2.13795 4.94083 1.84795 4.73445 1.76888 4.65197L1.74838 4.62365C1.71899 4.55015 1.71894 4.54883 1.74838 4.47521C1.75984 4.44777 1.83866 4.38132 1.98763 4.27014L2.65267 3.79064L2.72299 3.73791C2.80635 3.67116 2.88361 3.58461 2.95541 3.48498L3.02572 3.38146C3.40934 2.77095 3.60204 2.46462 3.65951 2.44006ZM3.70345 3.80627C3.58302 3.99794 3.42612 4.19925 3.22299 4.36193C3.18855 4.38948 3.15268 4.4169 3.11752 4.44201C3.06507 4.47945 3.01531 4.5157 2.9681 4.54943C3.0154 4.58322 3.06496 4.61934 3.11752 4.65686C3.15277 4.68202 3.18846 4.70931 3.22299 4.73693C3.42623 4.89963 3.58297 5.10087 3.70345 5.2926C3.71492 5.31085 3.72656 5.32869 3.73763 5.34631C3.74866 5.32877 3.7604 5.31076 3.77181 5.2926C3.89228 5.10094 4.04911 4.89957 4.25228 4.73693C4.28672 4.70939 4.32259 4.68195 4.35775 4.65686C4.40995 4.61959 4.45917 4.58302 4.50619 4.54943C4.45908 4.51578 4.41006 4.47935 4.35775 4.44201C4.32249 4.41684 4.28682 4.38956 4.25228 4.36193C4.04899 4.19921 3.89231 3.99803 3.77181 3.80627C3.7602 3.78778 3.74885 3.76943 3.73763 3.75158C3.72647 3.76935 3.71502 3.78786 3.70345 3.80627Z" fill="currentColor"/>
</svg>
