<svg width="16" height="16" viewBox="0 0 16 16" fill="none" xmlns="http://www.w3.org/2000/svg">
    <path
        d="M11.86 4.5H3C3 4.23478 3.10536 3.98043 3.29289 3.79289C3.48043 3.60536 3.73478 3.5 4 3.5H12C12.2652 3.5 12.5196 3.60536 12.7071 3.79289C12.8946 3.98043 13 4.23478 13 4.5H11.86ZM6 2.5C6 2.36739 6.05268 2.24021 6.14645 2.14645C6.24021 2.05268 6.36739 2 6.5 2H9.5C9.63261 2 9.75979 2.05268 9.85355 2.14645C9.94732 2.24021 10 2.36739 10 2.5V3H6V2.5ZM7 5.5L7.5 12H6.5L6 5.5H7ZM9 5.5H10L9.5 12H8.5L9 5.5ZM4.955 12.2105L5.06 13H10.975L11.08 12.2105L11.745 5.5H12.88L12 13C12 13.2652 11.8946 13.5196 11.7071 13.7071C11.5196 13.8946 11.2652 14 11 14H5C4.73478 14 4.48043 13.8946 4.29289 13.7071C4.10536 13.5196 4 13.2652 4 13L3.115 5.5H4.285L4.955 12.2105Z"
        fill="currentColor" />
</svg>