<svg width="20" height="20" viewBox="0 0 20 20" fill="none" xmlns="http://www.w3.org/2000/svg">
    <path fill-rule="evenodd" clip-rule="evenodd"
        d="M5 8.5C5.29667 8.5 5.58658 8.58799 5.83325 8.75281C6.07993 8.91763 6.27221 9.15188 6.38574 9.42596C6.49927 9.70005 6.52907 10.0017 6.47119 10.2926C6.41331 10.5836 6.27033 10.8509 6.06055 11.0607C5.85077 11.2704 5.5837 11.4133 5.29272 11.4712C5.00175 11.5291 4.70011 11.4994 4.42603 11.3858C4.15194 11.2723 3.91751 11.08 3.75269 10.8333C3.58786 10.5867 3.5 10.2967 3.5 10C3.5 9.60218 3.65815 9.22064 3.93945 8.93933C4.22076 8.65803 4.60218 8.5 5 8.5ZM10 8.5C10.2967 8.5 10.5866 8.58799 10.8333 8.75281C11.0799 8.91763 11.2722 9.15188 11.3857 9.42596C11.4993 9.70005 11.5291 10.0017 11.4712 10.2926C11.4133 10.5836 11.2703 10.8509 11.0605 11.0607C10.8508 11.2704 10.5837 11.4133 10.2927 11.4712C10.0018 11.5291 9.70011 11.4994 9.42603 11.3858C9.15194 11.2723 8.91751 11.08 8.75269 10.8333C8.58786 10.5867 8.5 10.2967 8.5 10C8.5 9.60218 8.65815 9.22064 8.93945 8.93933C9.22076 8.65803 9.60218 8.5 10 8.5ZM15 8.5C15.2967 8.5 15.5866 8.58799 15.8333 8.75281C16.0799 8.91763 16.2722 9.15188 16.3857 9.42596C16.4993 9.70005 16.5291 10.0017 16.4712 10.2926C16.4133 10.5836 16.2703 10.8509 16.0605 11.0607C15.8508 11.2704 15.5837 11.4133 15.2927 11.4712C15.0018 11.5291 14.7001 11.4994 14.426 11.3858C14.1519 11.2723 13.9175 11.08 13.7527 10.8333C13.5879 10.5867 13.5 10.2967 13.5 10C13.5 9.60218 13.6581 9.22064 13.9395 8.93933C14.2208 8.65803 14.6022 8.5 15 8.5Z"
        fill="currentColor" />
</svg>