<svg width="20" height="20" viewBox="0 0 20 20" fill="none" xmlns="http://www.w3.org/2000/svg">
<path d="M5.47884 8.74908C5.47894 10.2357 5.96538 11.6621 6.83085 12.7132C7.69644 13.7643 8.87042 14.3547 10.0941 14.3548C11.318 14.3548 12.4927 13.7645 13.3583 12.7132C14.2238 11.6621 14.7102 10.2357 14.7103 8.74908H15.7144C15.7143 10.4437 15.1613 12.1003 14.1345 13.3474C13.2101 14.4699 11.9515 15.1903 10.5759 15.3281V16.8575H17V18H3V16.8575H9.42874V15.3061C8.12531 15.1247 6.93767 14.4195 6.05471 13.3474C5.02791 12.1003 4.47485 10.4437 4.47475 8.74908H5.47884Z" fill="currentColor"/>
<path fill-rule="evenodd" clip-rule="evenodd" d="M10.1301 2C12.071 2 13.6444 3.567 13.6444 5.5V9.89982C13.6444 11.8328 12.071 13.3998 10.1301 13.3998C8.18923 13.3998 6.61582 11.8328 6.61582 9.89982V5.5C6.61585 3.567 8.18925 2 10.1301 2ZM10.1301 3C8.74379 3 7.61994 4.11929 7.61991 5.5V9.89982C7.61991 11.2806 8.74377 12.3998 10.1301 12.3998C11.5165 12.3998 12.6403 11.2806 12.6403 9.89982V5.5C12.6403 4.11929 11.5165 3 10.1301 3Z" fill="currentColor"/>
</svg>
